<svg width="100" height="100" viewBox="0 0 100 100" xmlns="http://www.w3.org/2000/svg">
    <!-- HORIZONTAL -->
    <line x1="0" y1="1"  x2="100" y2="1"  stroke="#5c4a38" stroke-width="2" />
    <line x1="0" y1="11" x2="100" y2="11" stroke="#4d3c2c" stroke-width="1" />
    <line x1="0" y1="21" x2="100" y2="21" stroke="#4d3c2c" stroke-width="1" />
    <line x1="0" y1="31" x2="100" y2="31" stroke="#4d3c2c" stroke-width="1" />
    <line x1="0" y1="41" x2="100" y2="41" stroke="#4d3c2c" stroke-width="1" />
    <line x1="0" y1="51" x2="100" y2="51" stroke="#5c4a38" stroke-width="2" />
    <line x1="0" y1="61" x2="100" y2="61" stroke="#4d3c2c" stroke-width="1" />
    <line x1="0" y1="71" x2="100" y2="71" stroke="#4d3c2c" stroke-width="1" />
    <line x1="0" y1="81" x2="100" y2="81" stroke="#4d3c2c" stroke-width="1" />
    <line x1="0" y1="91" x2="100" y2="91" stroke="#4d3c2c" stroke-width="1" />

    <!-- VERTICAL -->
    <line x1="1"  y1="0" x2="1"  y2="100" stroke="#5c4a38" stroke-width="2" />
    <line x1="11" y1="0" x2="11" y2="100" stroke="#4d3c2c" stroke-width="1" />
    <line x1="21" y1="0" x2="21" y2="100" stroke="#4d3c2c" stroke-width="1" />
    <line x1="31" y1="0" x2="31" y2="100" stroke="#4d3c2c" stroke-width="1" />
    <line x1="41" y1="0" x2="41" y2="100" stroke="#4d3c2c" stroke-width="1" />
    <line x1="51" y1="0" x2="51" y2="100" stroke="#5c4a38" stroke-width="2" />
    <line x1="61" y1="0" x2="61" y2="100" stroke="#4d3c2c" stroke-width="1" />
    <line x1="71" y1="0" x2="71" y2="100" stroke="#4d3c2c" stroke-width="1" />
    <line x1="81" y1="0" x2="81" y2="100" stroke="#4d3c2c" stroke-width="1" />
    <line x1="91" y1="0" x2="91" y2="100" stroke="#4d3c2c" stroke-width="1" />
</svg>
